<?xml version="1.0" encoding="UTF-8" standalone="no"?>
<svg width="137px" height="49px" viewBox="0 0 137 49" version="1.1" xmlns="http://www.w3.org/2000/svg" xmlns:xlink="http://www.w3.org/1999/xlink">
    <!-- Generator: Sketch 50.2 (55047) - http://www.bohemiancoding.com/sketch -->
    <title>Group</title>
    <desc>Created with Sketch.</desc>
    <defs>
        <polygon id="path-1" points="0 49 136.955404 49 136.955404 0 0 0"></polygon>
    </defs>
    <g id="Symbols" stroke="none" stroke-width="1" fill="none" fill-rule="evenodd">
        <g id="Navigation" transform="translate(0.000000, -1.000000)">
            <g id="Group" transform="translate(0.000000, 1.000000)">
                <path d="M10.400179,4.52457069 C7.77065903,4.52457069 5.8827467,5.58495 5.8827467,7.39819138 C5.8827467,9.14312241 7.92228663,9.70758793 10.7540957,10.1693466 L12.0858023,10.3915362 C16.3165097,11.0762086 19.6033205,12.9408638 19.6033205,17.0972948 C19.6033205,22.3661224 15.0186964,24.8977086 9.94493941,24.8977086 C6.35475451,24.8977086 2.52850625,23.8373293 7.13541667e-05,21.7675017 L2.44407049,17.9187086 C4.16346806,19.2868466 6.91096024,20.5014672 9.96182656,20.5014672 C12.5913465,20.5014672 14.5972311,19.4581052 14.5972311,17.6105879 C14.5972311,15.9514672 12.8778335,15.3527259 9.59090382,14.8051569 L8.09080139,14.5655879 C3.92752361,13.881519 0.893425521,12.0512603 0.893425521,7.70643276 C0.893425521,2.71145 5.27587951,0.11107069 10.2988561,0.11107069 C13.6195601,0.11107069 16.3333969,0.863812069 19.3168335,2.65991552 L17.0918917,6.56012241 C15.2208665,5.39703621 12.9790375,4.52457069 10.400179,4.52457069" id="Fill-1" fill="#000000"></path>
                <path d="M25.7279697,14.6171828 L32.9593577,14.6171828 C32.5545418,12.4786828 31.3072709,11.2984586 29.4025904,11.2984586 C27.3125079,11.2984586 26.1157796,12.5473552 25.7279697,14.6171828 M36.8538681,16.1565793 C36.8538681,16.6870103 36.8203317,17.2684931 36.7695513,17.6620621 L25.1897214,17.6620621 C25.627836,20.0567862 27.3134593,21.1000276 29.3868924,21.1000276 C30.802678,21.1000276 32.3197865,20.5356828 33.5165148,19.5095793 L36.0954923,22.3833207 C34.2244671,24.1111138 31.8983213,24.897769 29.1339419,24.897769 C24.1446207,24.897769 20.655402,21.4254069 20.655402,16.225131 C20.655402,11.0246138 24.0266485,7.44966552 28.9148846,7.44966552 C33.6175999,7.44966552 36.8538681,10.9908207 36.8538681,16.1565793" id="Fill-3" fill="#000000"></path>
                <polygon id="Fill-5" fill="#000000" points="60.7441826 20.4847155 68.7984031 20.4847155 68.7984031 24.47025 54.6929925 24.47025 54.6929925 21.2541121 62.9353502 11.8627672 54.7066688 11.8627672 54.7066688 7.89437069 68.8012573 7.89437069 68.8012573 11.1615603"></polygon>
                <path d="M73.7044778,16.1737052 C73.7044778,18.8594121 75.5584969,20.7408431 78.0362703,20.7408431 C80.5310498,20.7408431 82.3850689,18.8594121 82.3850689,16.1737052 C82.3850689,13.4879983 80.5310498,11.6065672 78.0362703,11.6065672 C75.5584969,11.6065672 73.7044778,13.4879983 73.7044778,16.1737052 M86.8856141,16.1737052 C86.8856141,21.1686879 83.1266766,24.8977569 78.0362703,24.8977569 C72.9627512,24.8977569 69.2205819,21.1686879 69.2205819,16.1737052 C69.2205819,11.1787224 72.9627512,7.44965345 78.0362703,7.44965345 C83.1266766,7.44965345 86.8856141,11.1787224 86.8856141,16.1737052" id="Fill-7" fill="#000000"></path>
                <path d="M53.4507641,40.5891983 L53.4507641,13.9159397 C53.4507641,10.0667845 50.8043569,7.44975 47.0960809,7.44975 C45.2250557,7.44975 43.4553535,8.08228448 42.2921616,9.84447414 L42.2921616,7.89437069 L38.0106738,7.89437069 L38.0106738,24.47025 L42.4101339,24.47025 L42.4101339,15.3866638 C42.4101339,12.8722155 43.9777849,11.6405776 45.8654594,11.6405776 C47.88835,11.6405776 49.051304,12.9408879 49.051304,15.3526293 L49.051304,45.0839224 L63.2582753,45.0839224 L63.2582753,40.6190086 L53.4507641,40.5891983 Z" id="Fill-9" fill="#000000"></path>
                <mask id="mask-2" fill="white">
                    <use xlink:href="#path-1"></use>
                </mask>
                <g id="Clip-12"></g>
                <path d="M64.3953516,45.0841034 L68.7948116,45.0841034 L68.7948116,32.0622931 L64.3953516,32.0622931 L64.3953516,45.0841034 Z M69.1356467,28.4792586 C69.1356467,29.9397241 67.9990938,31.0587586 66.5704644,31.0587586 C65.1268507,31.0587586 64.0208611,29.9397241 64.0208611,28.4792586 C64.0208611,27.0183103 65.1268507,25.8681379 66.5704644,25.8681379 C67.9990938,25.8681379 69.1356467,27.0183103 69.1356467,28.4792586 Z" id="Fill-11" fill="#000000" mask="url(#mask-2)"></path>
                <polygon id="Fill-13" fill="#000000" mask="url(#mask-2)" points="76.6309976 45.0840672 70.1753483 28.5081879 74.9622615 28.5081879 79.1929689 40.3797052 83.4574507 28.5081879 88.0929741 28.5081879 81.7046356 45.0840672"></polygon>
                <path d="M91.378334,35.2310121 L98.6096031,35.2310121 C98.2049061,33.0923914 96.9576352,31.9122879 95.0529547,31.9122879 C92.9628722,31.9122879 91.7661439,33.1611845 91.378334,35.2310121 M103.025713,36.7704086 C103.025713,37.300719 102.992176,37.8824431 102.941396,38.2758914 L91.3616847,38.2758914 C91.7997993,40.6704948 93.4853036,41.7138569 95.5587368,41.7138569 C96.9746413,41.7138569 98.491512,41.1495121 99.6883592,40.1234086 L102.267337,42.99715 C100.396311,44.7249431 98.0702845,45.5114776 95.3059052,45.5114776 C90.3164651,45.5114776 86.8272464,42.0391155 86.8272464,36.8389603 C86.8272464,31.6384431 90.1984929,28.0634948 95.0868479,28.0634948 C99.7894443,28.0634948 103.025713,31.60465 103.025713,36.7704086" id="Fill-14" fill="#000000" mask="url(#mask-2)"></path>
                <path d="M114.813837,24.4851552 C114.813837,25.8876897 113.722713,26.9618276 112.351405,26.9618276 C110.96535,26.9618276 109.903719,25.8876897 109.903719,24.4851552 C109.903719,23.0827414 110.96535,21.9787931 112.351405,21.9787931 C113.722713,21.9787931 114.813837,23.0827414 114.813837,24.4851552" id="Fill-15" fill="#3CB54A" mask="url(#mask-2)"></path>
                <path d="M119.252447,16.6855862 C118.857145,17.2583793 118.110186,17.3813621 117.55172,16.9845345 C116.987428,16.5834828 116.857682,15.8376207 117.252984,15.2648276 C117.648167,14.6920345 118.391678,14.5482931 118.95597,14.9494655 C119.514317,15.3461724 119.647511,16.1129138 119.252447,16.6855862" id="Fill-16" fill="#3CB54A" mask="url(#mask-2)"></path>
                <path d="M123.225471,12.030369 C122.632636,12.8895586 121.512138,13.0740931 120.674559,12.4788517 C119.827942,11.8773345 119.633383,10.7584207 120.226217,9.89923103 C120.819051,9.04004138 121.934317,8.82448966 122.780696,9.42612759 C123.618394,10.0212483 123.818186,11.1713 123.225471,12.030369" id="Fill-17" fill="#3CB54A" mask="url(#mask-2)"></path>
                <path d="M127.214763,7.18397931 C126.424397,8.32956552 124.930241,8.57553103 123.813548,7.78199655 C122.684725,6.9798931 122.42559,5.48804828 123.215838,4.34246207 C124.006323,3.19699655 125.493225,2.90951379 126.622167,3.71173793 C127.738741,4.50527241 128.005129,6.03851379 127.214763,7.18397931" id="Fill-18" fill="#3CB54A" mask="url(#mask-2)"></path>
                <path d="M121.616874,19.74455 C121.04616,20.1352224 120.306098,19.9785672 119.925186,19.4055328 C119.54023,18.8263431 119.682582,18.0834983 120.253177,17.6928259 C120.823891,17.3022741 121.567997,17.4384121 121.952952,18.017481 C122.333746,18.5905155 122.18747,19.3538776 121.616874,19.74455" id="Fill-19" fill="#3CB54A" mask="url(#mask-2)"></path>
                <path d="M126.90084,16.838331 C126.044709,17.4242793 124.934557,17.1891759 124.363248,16.3297448 C123.785993,15.4610207 123.999342,14.3466931 124.855473,13.7607448 C125.711248,13.1747966 126.827584,13.3790034 127.404839,14.2476069 C127.976267,15.1071586 127.756734,16.2523828 126.90084,16.838331" id="Fill-20" fill="#3CB54A" mask="url(#mask-2)"></path>
                <path d="M132.336256,13.7638103 C131.194827,14.5451552 129.714585,14.2317241 128.952879,13.0856552 C128.183087,11.9275172 128.467552,10.4418276 129.608862,9.66060345 C130.750172,8.87925862 132.238501,9.15153448 133.008174,10.3097931 C133.769999,11.4557414 133.477566,12.9827069 132.336256,13.7638103" id="Fill-21" fill="#3CB54A" mask="url(#mask-2)"></path>
                <path d="M122.695083,23.4243414 C122.022808,23.5818414 121.385377,23.1653414 121.231847,22.4903241 C121.076771,21.8079448 121.472786,21.1645483 122.14518,21.0070483 C122.817456,20.8495483 123.465708,21.2481862 123.621022,21.9305655 C123.774553,22.6055828 123.367358,23.2668414 122.695083,23.4243414" id="Fill-22" fill="#3CB54A" mask="url(#mask-2)"></path>
                <path d="M128.636495,22.6693793 C127.627904,22.9056897 126.671877,22.2808793 126.441641,21.2682931 C126.208788,20.2447241 126.802812,19.279569 127.811522,19.0432586 C128.820113,18.8069483 129.792551,19.4050862 130.025404,20.4285345 C130.25564,21.4412414 129.644967,22.433069 128.636495,22.6693793" id="Fill-23" fill="#3CB54A" mask="url(#mask-2)"></path>
                <path d="M134.796488,21.777181 C133.4517,22.0923017 132.177434,21.259181 131.870135,19.9090259 C131.559625,18.5442672 132.351776,17.2575948 133.696564,16.9424741 C135.041352,16.6274741 136.337857,17.4248707 136.648248,18.7895086 C136.955427,20.1397845 136.141395,21.462181 134.796488,21.777181" id="Fill-24" fill="#3CB54A" mask="url(#mask-2)"></path>
                <path d="M115.505081,16.1682259 L116.601794,13.3353983 C115.297797,12.8300707 113.882844,12.5524845 112.404147,12.5524845 C105.924951,12.5524845 100.669003,17.8642776 100.632137,24.4307603 L103.632936,24.4307603 C103.650418,22.0786397 104.56066,19.8701397 106.20133,18.2051052 C107.858055,16.5236569 110.060995,15.5977259 112.404147,15.5977259 C113.480644,15.5977259 114.527172,15.7937259 115.505081,16.1682259" id="Fill-25" fill="#3CB54A" mask="url(#mask-2)"></path>
                <path d="M117.766829,10.3256879 L118.863781,7.49237759 C116.859085,6.70741207 114.681475,6.27618793 112.403969,6.27618793 C102.509287,6.27618793 94.4847971,14.3979983 94.4478119,24.4308086 L97.4483735,24.4308086 C97.4572928,22.4014121 97.8537841,20.4339293 98.6209603,18.5922052 C99.3707737,16.7928431 100.450124,15.1657052 101.82833,13.7671534 C103.206298,12.368481 104.809626,11.272981 106.582777,10.5121534 C108.418006,9.72465345 110.380246,9.32142931 112.403969,9.32142931 C114.260367,9.32142931 116.064676,9.66165345 117.766829,10.3256879" id="Fill-26" fill="#3CB54A" mask="url(#mask-2)"></path>
                <path d="M120.02859,4.48313793 L121.125898,1.64874138 C118.420624,0.5845 115.479643,0 112.40404,0 C99.093753,0 88.2997704,10.9315862 88.263023,24.4308448 L91.2639414,24.4308448 C91.2727418,21.5575862 91.8304935,18.7717069 92.9232826,16.1497241 C93.9878867,13.5952069 95.5127253,11.3004138 97.4552235,9.32918966 C99.3977218,7.35772414 101.658935,5.81036207 104.175954,4.72982759 C106.7805,3.612 109.548684,3.04524138 112.40404,3.04524138 C115.039982,3.04524138 117.601359,3.52944828 120.02859,4.48313793" id="Fill-27" fill="#3CB54A" mask="url(#mask-2)"></path>
                <path d="M121.176131,24.5 C121.176131,26.8778276 120.263512,29.1133621 118.606787,30.7948103 C116.949943,32.4762586 114.747121,33.4023103 112.403969,33.4023103 C111.287514,33.4023103 110.203169,33.1907414 109.194221,32.7887241 L108.104643,35.6236034 C109.436587,36.1543966 110.886504,36.447431 112.403969,36.447431 C118.905761,36.447431 124.176693,31.0983448 124.176693,24.5 L121.176131,24.5 Z" id="Fill-28" fill="#3CB54A" mask="url(#mask-2)"></path>
                <path d="M127.360504,24.5 C127.360504,26.5538966 126.963061,28.5450345 126.187085,30.4076379 C125.43739,32.2068793 124.357921,33.8342586 122.979834,35.2328103 C121.601747,36.6313621 119.998419,37.7268621 118.225268,38.487569 C116.38992,39.2751897 114.427799,39.6785345 112.404076,39.6785345 C110.513072,39.6785345 108.676178,39.3262414 106.946077,38.6375862 L105.856142,41.473431 C107.88486,42.2802414 110.09339,42.7237759 112.404076,42.7237759 C122.321354,42.7237759 130.361185,34.5646724 130.361185,24.5 L127.360504,24.5 Z" id="Fill-29" fill="#3CB54A" mask="url(#mask-2)"></path>
                <path d="M133.544889,24.5 C133.544889,27.3977586 132.986423,30.2071724 131.884715,32.8501552 C130.820111,35.4046724 129.29551,37.6994655 127.353012,39.6708103 C125.410514,41.6421552 123.149181,43.1893966 120.632044,44.269931 C118.027736,45.388 115.259313,45.9547586 112.404076,45.9547586 C109.73876,45.9547586 107.149555,45.4605345 104.69854,44.4856034 L103.608129,47.3222931 C106.333739,48.4051207 109.300408,49 112.404076,49 C125.737078,49 136.545569,38.031 136.545569,24.5 L133.544889,24.5 Z" id="Fill-30" fill="#3CB54A" mask="url(#mask-2)"></path>
            </g>
        </g>
    </g>
</svg>
