<svg xmlns="http://www.w3.org/2000/svg" xmlns:xlink="http://www.w3.org/1999/xlink" width="98" height="36" viewBox="0 0 98 36">
    <defs>
        <path id="a" d="M0 .016h15.91v17.935H0z"/>
        <path id="c" d="M.046.001h25.87v27.077H.046z"/>
    </defs>
    <g fill="none" fill-rule="evenodd">
        <g>
            <mask id="b" fill="#fff">
                <use xlink:href="#a"/>
            </mask>
            <path fill="#FFF" d="M8.961 3.217c-2.243 0-3.145 1.051-3.145 2.151 0 1.174 1.146 1.656 2.67 1.953l1.024.198c2.877.568 5.035 1.89 5.035 4.622 0 3.536-2.987 5.81-7.279 5.81-2.072 0-5.279-.63-7.266-2.423l1.963-2.769c1.621 1.484 4.048 2.003 5.523 2.003 1.914 0 3.401-.754 3.401-2.138 0-1.076-1-1.595-2.999-1.966l-1.085-.21c-2.78-.519-4.657-2.04-4.657-4.598 0-3.14 2.365-5.834 6.9-5.834 2.036 0 4.487.383 6.864 2.027l-1.816 2.769C12.387 3.6 10.388 3.217 8.96 3.217" mask="url(#b)"/>
        </g>
        <path fill="#FFF" d="M18.534 10.52h5.222c.013-.037.013-.074.013-.112v-.11c0-1.448-.84-2.178-2.155-2.178-1.704 0-2.63 1.175-3.08 2.4m2.07 7.445c-3.555 0-5.588-2.226-5.588-5.256 0-3.03 1.96-7.371 6.78-7.371 2.97 0 5.028 1.917 5.028 4.885 0 .829-.207 1.868-.463 2.498H18.17c.049 1.596 1.035 2.499 2.702 2.499 1.072 0 2.009-.31 2.922-1.052l1.631 2.103c-1.278 1.15-2.787 1.694-4.82 1.694M42.933 14.825h5.775l-.6 2.88H37.99l.501-2.46 6.938-6.65h-5.677l.612-2.867h9.947l-.526 2.46z"/>
        <path fill="#FFF" d="M52.53 12.016c0 1.732 1.168 2.944 2.833 2.944 1.922 0 3.38-1.657 3.38-3.673 0-1.732-1.154-2.944-2.857-2.944-1.909 0-3.356 1.645-3.356 3.673m9.46-.94c0 3.76-2.882 6.89-6.821 6.89-3.38 0-5.885-2.326-5.885-5.752 0-3.747 2.882-6.876 6.821-6.876 3.393 0 5.885 2.337 5.885 5.738M44.279 30.984l1.69-7.941h3.187l-1.691 7.94zM52.317 30.854l-2.263-11.977h3.26l1.375 8.701 4.745-8.701h3.455l-6.91 11.977zM64.738 23.668h5.222c.012-.037.012-.074.012-.11v-.112c0-1.447-.84-2.177-2.154-2.177-1.704 0-2.63 1.175-3.08 2.4m2.07 7.445c-3.555 0-5.588-2.226-5.588-5.256 0-3.03 1.96-7.372 6.78-7.372 2.97 0 5.028 1.917 5.028 4.886 0 .828-.207 1.867-.463 2.498h-8.192c.048 1.596 1.035 2.498 2.702 2.498 1.071 0 2.009-.309 2.922-1.05l1.63 2.102c-1.277 1.15-2.787 1.694-4.82 1.694M49.797 20.645c0 .989-.77 1.747-1.737 1.747-.979 0-1.728-.758-1.728-1.747 0-.99.75-1.768 1.728-1.768.967 0 1.737.778 1.737 1.768"/>
        <path fill="#3CB449" d="M81.627 17.65c0 .99-.77 1.747-1.738 1.747-.978 0-1.728-.757-1.728-1.747 0-.989.75-1.767 1.728-1.767.968 0 1.738.778 1.738 1.767"/>
        <path fill="#FFF" d="M35.088 27.616L38.61 10.67c.097-.447.134-.893.134-1.302 0-2.356-1.498-4.03-3.97-4.03-1.218 0-2.424.384-3.41 1.537l.267-1.215h-3.068l-2.51 12.016h3.192l1.34-6.448c.425-2.096 1.704-2.852 3.02-2.852 1.363 0 1.85.768 1.85 1.76 0 1.406-4.235 20.718-4.235 20.718h12.377l.682-3.238h-9.191z"/>
        <path fill="#3CB449" d="M85.685 13.233a.998.998 0 0 1-1.443-.004 1.024 1.024 0 0 1 0-1.459 1 1 0 0 1 1.447-.008 1.043 1.043 0 0 1-.004 1.471M89.163 10.385c-.56.568-1.429.555-1.983-.006a1.407 1.407 0 0 1 0-2.006c.56-.568 1.43-.58 1.99-.012a1.435 1.435 0 0 1-.007 2.024M92.533 7.295c-.687.697-1.754.682-2.434-.008a1.727 1.727 0 0 1 0-2.46c.687-.698 1.754-.712 2.441-.016.68.69.68 1.787-.007 2.484M82.462 11.804l1.347-1.756a8.387 8.387 0 0 0-3.86-.935c-4.657 0-8.435 3.784-8.461 8.462h2.156a6.318 6.318 0 0 1 1.847-4.435 6.246 6.246 0 0 1 4.458-1.858c.88 0 1.73.18 2.513.522M85.753 15.16c.347.801.53 1.674.53 2.575a6.393 6.393 0 0 1-1.837 4.511 6.18 6.18 0 0 1-4.435 1.869 6.156 6.156 0 0 1-3.101-.83L75.85 25.18a8.271 8.271 0 0 0 4.16 1.116c4.649 0 8.418-3.833 8.418-8.562 0-1.419-.34-2.757-.94-3.935l-1.736 1.36z"/>
        <path fill="#3CB449" d="M80.03 6.87a10.58 10.58 0 0 1 5.275 1.398l1.327-1.743a12.725 12.725 0 0 0-6.602-1.838c-7.112 0-12.88 5.824-12.906 13.018h2.156c.007-1.455.292-2.866.843-4.187a10.864 10.864 0 0 1 2.305-3.46 10.714 10.714 0 0 1 3.418-2.334 10.58 10.58 0 0 1 4.184-.854M89.373 12.28a10.965 10.965 0 0 1 1.395 5.373c0 1.473-.285 2.9-.842 4.237a10.868 10.868 0 0 1-2.302 3.46 10.697 10.697 0 0 1-3.412 2.335 10.549 10.549 0 0 1-4.177.854 10.549 10.549 0 0 1-5.303-1.418l-1.063 1.898a12.686 12.686 0 0 0 6.366 1.705c7.117 0 12.886-5.853 12.886-13.071a13.15 13.15 0 0 0-1.83-6.718l-1.718 1.344z"/>
        <path fill="#3CB449" d="M79.908 2.32c2.043 0 4.024.409 5.888 1.213.726.313 1.422.682 2.086 1.103L89.2 2.894A16.949 16.949 0 0 0 79.908.13c-9.525 0-17.25 7.864-17.276 17.575h2.147a15.599 15.599 0 0 1 1.188-5.957A15.405 15.405 0 0 1 69.21 6.84a15.068 15.068 0 0 1 4.81-3.308 14.775 14.775 0 0 1 5.888-1.212"/>
        <g transform="translate(71.36 8.202)">
            <mask id="d" fill="#fff">
                <use xlink:href="#c"/>
            </mask>
            <path fill="#3CB449" d="M21.47 1.341a15.51 15.51 0 0 1 2.293 8.149c0 2.08-.4 4.097-1.19 5.994a15.368 15.368 0 0 1-3.25 4.897 15.104 15.104 0 0 1-4.822 3.302 14.866 14.866 0 0 1-5.901 1.21 14.866 14.866 0 0 1-7.491-2.007l-1.063 1.9A17.03 17.03 0 0 0 8.6 27.078c9.563 0 17.316-7.874 17.316-17.588 0-3.495-1.004-6.751-2.734-9.489l-1.711 1.34z" mask="url(#d)"/>
        </g>
    </g>
</svg>
