<?xml version="1.0" encoding="UTF-8" standalone="no"?>
<svg width="18px" height="22px" viewBox="0 0 18 22" version="1.1" xmlns="http://www.w3.org/2000/svg" xmlns:xlink="http://www.w3.org/1999/xlink">
    <!-- Generator: Sketch 47.1 (45422) - http://www.bohemiancoding.com/sketch -->
    <title>rubbish-bin</title>
    <desc>Created with Sketch.</desc>
    <defs></defs>
    <g id="07.-Help" stroke="none" stroke-width="1" fill="none" fill-rule="evenodd" opacity="0.8">
        <g id="Artboard" fill-rule="nonzero" fill="#D0021B">
            <g id="rubbish-bin">
                <path d="M16.4475588,2.59047331 L13.407,2.59047331 L13.407,0.681679576 C13.407,0.297465861 13.0862059,0 12.6885294,0 C12.6499412,0 12.6242059,0.0124453193 12.6116471,0.0248622245 C12.5987647,0.0124453193 12.5730294,0 12.5601765,0 L5.41408824,0 L5.36291176,0 L5.31144118,0 C4.91376471,0 4.60585294,0.297465861 4.60585294,0.681679576 L4.60585294,2.59050173 L1.55244118,2.59050173 C0.679882353,2.59050173 0,3.24731908 0,4.09027635 L0,5.18100345 L0,6.54433419 L1.34714706,6.54433419 L1.34714706,20.5126423 C1.34714706,21.355628 2.01417647,22 2.88673529,22 L15.1132941,22 C15.9858529,22 16.6657059,21.355628 16.6657059,20.5126423 L16.6657059,6.54433419 L18,6.54433419 L18,5.18100345 L18,4.09027635 C18,3.24731908 17.3198529,2.59047331 16.4475588,2.59047331 Z M6.01705882,1.36333074 L11.9829412,1.36333074 L11.9829412,2.59047331 L6.01705882,2.59047331 L6.01705882,1.36333074 L6.01705882,1.36333074 Z M15.2416471,20.5126707 C15.2416471,20.5996459 15.2030588,20.6366408 15.1132941,20.6366408 L2.88673529,20.6366408 C2.79697059,20.6366408 2.75838235,20.5996174 2.75838235,20.5126707 L2.75838235,6.54430578 L15.2416471,6.54430578 L15.2416471,20.5126707 L15.2416471,20.5126707 Z M16.5759412,5.18097504 L1.42405882,5.18097504 L1.42405882,4.09024794 C1.42405882,4.00350008 1.46264706,3.95380405 1.55241176,3.95380405 L16.4475588,3.95380405 C16.5373529,3.95380405 16.5759412,4.00350008 16.5759412,4.09024794 L16.5759412,5.18097504 Z" id="Shape"></path>
                <rect id="Rectangle-path" x="11.4545455" y="8.14814815" width="1.63636364" height="11.4074074"></rect>
                <rect id="Rectangle-path" x="8.18181818" y="8.14814815" width="1.63636364" height="11.4074074"></rect>
                <rect id="Rectangle-path" x="4.90909091" y="8.14814815" width="1.63636364" height="11.4074074"></rect>
            </g>
        </g>
    </g>
</svg>