<?xml version="1.0" encoding="UTF-8" standalone="no"?>
<svg width="26px" height="17px" viewBox="0 0 26 17" version="1.1" xmlns="http://www.w3.org/2000/svg" xmlns:xlink="http://www.w3.org/1999/xlink">
    <!-- Generator: Sketch 47.1 (45422) - http://www.bohemiancoding.com/sketch -->
    <title>Page 1</title>
    <desc>Created with Sketch.</desc>
    <defs></defs>
    <g id="Live" stroke="none" stroke-width="1" fill="none" fill-rule="evenodd">
        <g id="Live-View" transform="translate(-1158.000000, -418.000000)" fill="#E0E0E0">
            <g id="Page-1" transform="translate(1171.000000, 426.500000) scale(-1, 1) translate(-1171.000000, -426.500000) translate(1158.000000, 418.000000)">
                <path d="M2.78460107,0 L2.78460107,0 C0.30892847,0 -0.931449586,3.05189341 0.81982189,4.83700226 L3.94770967,8.0262516 C4.20442726,8.28800537 4.20442726,8.71199463 3.94770967,8.9737484 L0.81982189,12.1629977 C-0.931449586,13.9481066 0.30892847,17 2.78460107,17 C3.52171098,17 4.22831979,16.7019635 4.74938024,16.1701628 L11.8078431,8.9737484 C12.0640523,8.71199463 12.0640523,8.28800537 11.8078431,8.0262516 L4.74938024,0.829837185 C4.22831979,0.29855479 3.52171098,0 2.78460107,0" id="Fill-1"></path>
                <path d="M16.7846011,0 L16.7846011,0 C14.3089285,0 13.0685504,3.05189341 14.8198219,4.83700226 L17.9477097,8.0262516 C18.2044273,8.28800537 18.2044273,8.71199463 17.9477097,8.9737484 L14.8198219,12.1629977 C13.0685504,13.9481066 14.3089285,17 16.7846011,17 C17.521711,17 18.2283198,16.7019635 18.7493802,16.1701628 L25.8078431,8.9737484 C26.0640523,8.71199463 26.0640523,8.28800537 25.8078431,8.0262516 L18.7493802,0.829837185 C18.2283198,0.29855479 17.521711,0 16.7846011,0" id="Fill-4"></path>
            </g>
        </g>
    </g>
</svg>