<svg width="14" height="15" viewBox="0 0 14 15" xmlns="http://www.w3.org/2000/svg"><title>calendar</title><g fill="#7EC141" fill-rule="evenodd"><path d="M13.689 1h-1.743V.25c0-.138-.11-.25-.248-.25H9.956a.25.25 0 0 0-.25.25V1H4.232V.25a.25.25 0 0 0-.25-.25H2.24a.25.25 0 0 0-.25.25V1H.25a.25.25 0 0 0-.25.25v13.5c0 .138.112.25.25.25h13.439a.25.25 0 0 0 .25-.25V1.25a.25.25 0 0 0-.25-.25zm-3.484 1h1.244V.5h-1.244V2zM2.489 2h1.244V.5H2.49V2zm-1.99-.5H1.99v.75c0 .138.112.25.25.25h1.743a.25.25 0 0 0 .249-.25V1.5h5.474v.75c0 .138.112.25.25.25h1.742a.249.249 0 0 0 .248-.25V1.5h1.494v2.25H.498V1.5zm0 13h12.94V4.25H.5V14.5z"/><path d="M8.96 5.75H2.24V13h9.458V5.75H8.96zM7.217 8H8.96V6.25H7.217V8zm0 2.25H8.96V8.5H7.217v1.75zm-2.24 0h1.744V8.5H4.978v1.75zm0-2.25h1.744V6.25H4.978V8zM2.739 8H4.48V6.25H2.74V8zm0 2.25H4.48V8.5H2.74v1.75zm0 2.25H4.48v-1.75H2.74v1.75zm2.24 0H6.72v-1.75H4.978v1.75zm2.24 0H8.96v-1.75H7.217v1.75zm2.24 0H11.2v-1.75H9.457v1.75zm0-2.25H11.2V8.5H9.457v1.75zm0-2.25H11.2V6.25H9.457V8z"/></g></svg>