<svg width="200" height="37" viewBox="0 0 200 37" xmlns="http://www.w3.org/2000/svg" xmlns:xlink="http://www.w3.org/1999/xlink"><title>Logo</title><defs><path id="a" d="M0 35.456h199.812V.017H0z"/></defs><g fill="none" fill-rule="evenodd"><g transform="translate(0 .294)"><path d="M61.717 31.289c.966.627 2.648 1.13 4.077 1.13 2.942 0 4.707-1.925 4.707-4.77 0-2.593-1.513-4.182-3.74-5.856-2.228-1.548-5.339-4.182-5.339-7.822 0-4.266 2.984-7.403 7.481-7.403 1.766 0 3.321.543 3.993 1.045l-.798 2.761c-.714-.502-1.891-.962-3.362-.962-2.775 0-4.077 2.091-4.077 4.015 0 2.803 1.47 3.89 4.16 5.815 3.405 2.384 4.918 4.978 4.918 8.115 0 4.852-3.446 7.905-7.943 7.905-1.934 0-3.993-.627-4.792-1.212l.715-2.761zM85.925 22.797c.084-4.057-1.471-5.856-3.026-5.856-2.102 0-3.194 3.096-3.321 5.856h6.347zm-6.389 2.385c.042 6.19 2.48 7.529 4.833 7.529 1.388 0 2.565-.334 3.363-.795l.504 2.384c-1.134.628-2.858.962-4.455.962-4.875 0-7.397-3.973-7.397-10.164 0-6.567 2.774-10.667 6.85-10.667 4.162 0 5.8 4.35 5.8 8.952 0 .753 0 1.297-.041 1.799h-9.457zM92.522 19.995c0-2.385-.125-3.597-.168-5.23h2.817l.167 2.427h.084c.883-1.631 2.522-2.76 4.666-2.76 2.816 0 4.917 2.09 4.917 6.985v13.595h-3.236V21.96c0-2.385-.462-4.81-2.816-4.81-1.345 0-2.648 1.129-3.068 3.304-.084.502-.126 1.129-.126 1.799v12.758h-3.237V19.995zM108.787 33.046l6.43-12.508c.547-1.045 1.178-2.091 1.64-3.011v-.084h-7.271v-2.677h10.843V16.9l-6.346 12.34c-.547 1.046-1.177 2.091-1.64 3.012v.083h7.986v2.678h-11.642v-1.966zM126.229 24.889c0 3.346.588 7.906 3.53 7.906 2.774 0 3.32-4.769 3.32-7.906 0-3.096-.546-7.864-3.404-7.864-2.9 0-3.446 4.768-3.446 7.864m10.129 0c0 7.822-3.657 10.457-6.767 10.457-3.657 0-6.598-3.304-6.598-10.415 0-7.404 3.32-10.5 6.808-10.5 3.615 0 6.557 3.389 6.557 10.458" fill="#585E66"/><path fill="#7DC143" d="M141.703 6.884h3.228v25.105h10.686v3.049h-13.914z"/><mask id="b" fill="#fff"><use xlink:href="#a"/></mask><path d="M159.106 35.038h3.265V14.82h-3.265v20.218zm3.636-25.899c.037 1.253-.779 2.256-2.078 2.256-1.15 0-1.966-1.003-1.966-2.256 0-1.295.853-2.297 2.04-2.297 1.225 0 2.004 1.002 2.004 2.297zM169.05 14.82l3.526 11.362c.594 1.838 1.076 3.509 1.447 5.18h.111c.408-1.671.928-3.342 1.522-5.18l3.487-11.362h3.414l-7.05 20.218h-3.117l-6.827-20.218h3.488zM196.658 22.966c.037-2.34-.853-5.974-4.527-5.974-3.302 0-4.749 3.426-5.009 5.974h9.536zm-9.573 2.632c.074 4.97 2.894 7.017 6.16 7.017 2.337 0 3.747-.46 4.971-1.044l.557 2.631c-1.15.585-3.117 1.254-5.974 1.254-5.528 0-8.83-4.094-8.83-10.193 0-6.099 3.19-10.902 8.422-10.902 5.862 0 7.421 5.806 7.421 9.523 0 .752-.074 1.338-.111 1.714h-12.616z" fill="#7DC143" mask="url(#b)"/></g><path d="M47.504 34.578a2.64 2.64 0 0 0 3.696-.384 2.609 2.609 0 0 0-.38-3.68 2.618 2.618 0 0 0-1.658-.584 2.612 2.612 0 0 0-1.658 4.649M47.504 27.174a2.64 2.64 0 0 0 3.696-.385 2.609 2.609 0 0 0-.38-3.679 2.618 2.618 0 0 0-1.658-.585 2.612 2.612 0 0 0-1.658 4.649M47.504 19.77a2.64 2.64 0 0 0 3.696-.385 2.608 2.608 0 0 0-.38-3.68 2.617 2.617 0 0 0-1.658-.584 2.612 2.612 0 0 0-1.658 4.649" fill="#7EC141"/><path d="M17.146 34.578a2.64 2.64 0 0 0 3.696-.384 2.61 2.61 0 0 0-.38-3.68 2.618 2.618 0 0 0-1.658-.584 2.612 2.612 0 0 0-1.658 4.649M17.146 27.174a2.64 2.64 0 0 0 3.696-.385 2.61 2.61 0 0 0-.38-3.679 2.618 2.618 0 0 0-1.658-.585 2.612 2.612 0 0 0-1.658 4.649M17.146 19.77a2.64 2.64 0 0 0 3.696-.385 2.609 2.609 0 0 0-.38-3.68 2.616 2.616 0 0 0-1.658-.584 2.612 2.612 0 0 0-1.658 4.649M9.49 34.578a2.64 2.64 0 0 0 3.696-.384 2.61 2.61 0 0 0-.38-3.68 2.618 2.618 0 0 0-1.658-.584 2.612 2.612 0 0 0-1.658 4.649M9.49 27.174a2.64 2.64 0 0 0 3.696-.385 2.61 2.61 0 0 0-.38-3.679 2.618 2.618 0 0 0-1.658-.585 2.612 2.612 0 0 0-1.658 4.649M9.49 19.77a2.64 2.64 0 0 0 3.696-.385 2.609 2.609 0 0 0-.38-3.68 2.616 2.616 0 0 0-1.658-.584A2.612 2.612 0 0 0 9.49 19.77M9.49 12.365a2.64 2.64 0 0 0 3.696-.385 2.609 2.609 0 0 0-.38-3.679 2.616 2.616 0 0 0-1.658-.585 2.612 2.612 0 0 0-1.658 4.649M.974 34.578a2.64 2.64 0 0 0 3.697-.384 2.61 2.61 0 0 0-.381-3.68 2.618 2.618 0 0 0-1.658-.584 2.612 2.612 0 0 0-1.658 4.649M.974 27.174a2.64 2.64 0 0 0 3.697-.385 2.61 2.61 0 0 0-.381-3.679 2.618 2.618 0 0 0-1.658-.585 2.612 2.612 0 0 0-1.658 4.649" fill="#585E66"/><path d="M40.547 34.578a2.64 2.64 0 0 0 3.696-.384 2.609 2.609 0 0 0-.38-3.68 2.618 2.618 0 0 0-1.658-.584 2.612 2.612 0 0 0-1.658 4.649M40.547 27.174a2.64 2.64 0 0 0 3.696-.385 2.609 2.609 0 0 0-.38-3.679 2.618 2.618 0 0 0-1.658-.585 2.612 2.612 0 0 0-1.658 4.649M40.547 19.77a2.64 2.64 0 0 0 3.696-.385 2.608 2.608 0 0 0-.38-3.68 2.617 2.617 0 0 0-1.658-.584 2.612 2.612 0 0 0-1.658 4.649M40.547 12.365a2.64 2.64 0 0 0 3.696-.385 2.608 2.608 0 0 0-.38-3.679 2.617 2.617 0 0 0-1.658-.585 2.612 2.612 0 0 0-1.658 4.649M25.115 34.578a2.64 2.64 0 0 0 3.696-.384 2.61 2.61 0 0 0-.38-3.68 2.618 2.618 0 0 0-1.658-.584 2.612 2.612 0 0 0-1.658 4.649M25.115 27.174a2.64 2.64 0 0 0 3.696-.385 2.61 2.61 0 0 0-.38-3.679 2.618 2.618 0 0 0-1.658-.585 2.612 2.612 0 0 0-1.658 4.649M25.115 19.77a2.64 2.64 0 0 0 3.696-.385 2.609 2.609 0 0 0-.38-3.68 2.616 2.616 0 0 0-1.658-.584 2.612 2.612 0 0 0-1.658 4.649M25.115 12.365a2.64 2.64 0 0 0 3.696-.385 2.609 2.609 0 0 0-.38-3.679 2.616 2.616 0 0 0-1.658-.585 2.612 2.612 0 0 0-1.658 4.649M25.115 4.96a2.64 2.64 0 0 0 3.696-.384 2.609 2.609 0 0 0-.38-3.68 2.618 2.618 0 0 0-1.658-.584 2.612 2.612 0 0 0-1.658 4.649M33.474 34.578a2.64 2.64 0 0 0 3.697-.384 2.61 2.61 0 0 0-.381-3.68 2.618 2.618 0 0 0-1.658-.584 2.612 2.612 0 0 0-1.658 4.649M33.474 27.174a2.64 2.64 0 0 0 3.697-.385 2.61 2.61 0 0 0-.381-3.679 2.618 2.618 0 0 0-1.658-.585 2.612 2.612 0 0 0-1.658 4.649" fill="#7EC141"/></g></svg>